<svg width="521" height="322" viewBox="0 0 521 322" fill="none" xmlns="http://www.w3.org/2000/svg">
<path d="M494.191 227.852C501.985 217.548 507.993 206.757 512.134 195.398C512.458 194.83 512.702 194.262 512.783 193.613C516.355 183.147 518.304 172.275 518.385 161.159C518.953 73.2902 403.179 0.99898 260.37 0.106496C260.37 0.106496 260.289 0.106496 260.207 0.106496C260.207 0.106496 260.126 0.106496 260.045 0.106496C117.235 -0.785987 0.568316 69.9636 0 157.833C0 168.948 1.70495 179.82 5.19603 190.368C5.27722 191.017 5.52078 191.585 5.84554 192.153C30.8514 264.201 134.285 318.885 258.178 319.697C361.124 320.346 450.431 283.673 492.567 230.124C493.298 229.556 493.866 228.826 494.191 227.933V227.852ZM15.5069 189.881C17.4554 186.554 22.1643 179.171 30.9326 168.38C37.59 184.932 51.0672 200.591 58.6989 208.623C50.7425 211.382 38.2395 215.438 29.796 216.899C23.5445 208.136 18.7544 199.13 15.4257 189.8L15.5069 189.881ZM483.961 152.153C477.466 144.851 470.322 137.468 462.609 130.003C462.041 120.592 459.605 111.992 456.195 104.446C467.237 102.986 477.06 103.635 486.559 104.284C487.128 116.86 487.209 139.577 483.961 152.153ZM445.397 208.542C433.138 209.435 416.332 208.948 407.564 208.623C409.187 202.051 411.867 192.883 414.789 187.609C419.092 184.526 428.185 177.711 434.68 171.301C442.312 186.23 445.965 198.887 445.397 208.542ZM72.2573 206.108C71.7702 196.453 75.586 183.877 83.4612 168.948C89.8751 175.439 98.8058 182.335 103.109 185.5C105.95 190.773 108.548 200.023 110.091 206.595C101.323 206.838 84.4355 207.082 72.2573 206.027V206.108ZM65.9246 128.705C66.5741 119.05 69.4969 110.45 73.4751 102.986C80.8632 103.067 97.9127 104.203 112.445 110.774C105.788 118.482 92.7167 134.385 81.5939 152.559C75.6672 147.772 69.2533 136.332 66.0058 128.786L65.9246 128.705ZM261.019 12.6013C267.433 19.4166 282.128 37.1851 291.059 64.4465C276.364 67.4485 264.673 73.6958 259.72 76.6978C254.768 73.6147 243.158 67.2051 228.544 64.0408C238.449 35.319 255.336 17.9562 261.1 12.6013H261.019ZM184.215 79.6187C186.57 78.4017 199.073 72.3165 213.849 72.2354C210.196 79.781 205.649 92.5191 206.461 108.016C199.479 105.663 188.356 102.742 174.798 102.174C176.584 93.8173 179.994 83.432 184.215 79.6187ZM335.144 80.5923C339.284 84.4868 342.532 94.9532 344.237 103.31C330.679 103.716 319.556 106.474 312.492 108.746C313.548 93.2494 309.083 80.43 305.591 72.8845C320.205 73.1279 332.708 79.3753 335.144 80.5923ZM394.168 119.537C394.411 130.328 392.381 141.119 387.997 151.829C377.93 143.878 369.081 139.334 364.859 137.387C363.235 127.813 360.069 118.888 357.714 113.046C370.461 113.127 386.536 114.669 393.924 115.48C394.005 116.86 394.168 118.158 394.168 119.537ZM297.31 233.288C292.601 235.398 278.962 240.834 263.699 241.483L263.942 206.351C271.087 208.38 283.346 211.057 298.609 211.138C299.746 211.138 300.964 211.138 302.182 211.138C301.045 217.305 299.178 226.96 297.229 233.288H297.31ZM172.037 111.992C186.408 112.235 198.017 115.561 204.512 117.914C196.8 128.3 189.574 138.685 183.241 148.34C175.366 143.147 167.978 139.009 163.837 136.819C165.948 126.271 169.926 116.535 172.037 111.992ZM306.728 179.333C306.728 184.445 306.403 194.262 304.536 201.159C289.435 201.727 276.851 199.455 269.138 197.508C276.201 189.881 283.59 177.63 290.166 165.054C296.823 169.841 302.993 174.871 306.728 179.415V179.333ZM213.281 200.51C211.495 193.613 211.251 183.715 211.413 178.684C215.229 174.222 221.4 169.192 228.138 164.567C234.552 177.305 241.697 189.556 248.76 197.345C241.047 199.212 228.463 201.321 213.362 200.591L213.281 200.51ZM258.908 193.613C252.089 188.015 243.889 174.141 236.419 158.969C246 152.884 255.174 147.853 259.233 145.744C263.211 147.934 272.386 153.127 281.885 159.293C274.172 174.303 265.809 188.096 258.908 193.613ZM264.429 137.306L264.592 117.022C276.039 117.103 291.384 117.833 299.99 119.537C296.661 127.732 291.871 138.928 286.35 150.368C277.257 144.445 268.651 139.577 264.429 137.306ZM254.118 137.306C249.897 139.577 241.291 144.283 232.035 150.125C226.677 138.685 221.968 127.407 218.802 119.131C227.407 117.509 242.752 117.022 254.2 117.022L254.037 137.306H254.118ZM210.845 125.947C213.768 133.249 218.314 144.202 223.673 155.642C217.503 159.942 211.576 164.486 207.029 168.948C202.889 163.756 197.287 158.644 191.279 154.182C197.206 145.257 203.782 135.683 210.845 125.947ZM201.427 178.279C201.427 181.93 201.346 191.585 202.97 200.023C194.039 199.455 178.045 198.238 165.786 195.642C169.52 188.989 176.503 176.981 185.839 162.457C192.497 167.488 198.342 173.005 201.427 178.279ZM220.019 232.801C218.233 226.392 216.447 216.737 215.392 210.57C216.528 210.57 217.746 210.57 218.883 210.652C234.227 210.733 246.568 208.217 253.712 206.27L253.55 241.402C238.205 240.509 224.809 234.992 220.101 232.801H220.019ZM316.552 179.009C319.718 173.816 325.645 168.38 332.302 163.431C341.395 178.035 348.215 190.206 351.869 196.859C339.69 199.293 323.696 200.347 314.685 200.753C316.39 192.315 316.552 182.66 316.471 179.009H316.552ZM311.112 169.597C306.647 165.054 300.801 160.429 294.631 156.129C300.152 144.77 304.861 133.898 307.865 126.596C314.847 136.332 321.342 145.987 327.106 155.074C321.098 159.537 315.334 164.486 311.193 169.678L311.112 169.597ZM314.36 118.645C320.855 116.373 332.546 113.29 346.916 113.209C348.946 117.833 352.843 127.651 354.791 138.117C350.651 140.226 343.182 144.202 335.225 149.314C328.974 139.577 321.991 129.111 314.36 118.563V118.645ZM294.875 73.777C297.879 79.2941 304.049 93.0871 302.425 110.044C291.384 107.691 273.441 107.205 264.592 107.123L264.754 85.217C269.3 82.4584 280.829 76.2922 294.875 73.777ZM254.281 107.042C245.35 107.042 227.489 107.286 216.366 109.395C214.905 92.438 221.318 78.7262 224.404 73.2902C238.449 75.9676 249.897 82.2961 254.443 85.0547L254.281 106.961V107.042ZM153.77 136.007C149.467 137.874 140.618 142.336 130.388 150.206C126.166 139.415 124.218 128.624 124.624 117.833C124.624 116.454 124.786 115.075 124.948 113.776C132.418 113.127 148.493 111.748 161.158 111.829C158.722 117.671 155.475 126.515 153.689 136.089L153.77 136.007ZM114.719 123.269C115.043 134.547 117.641 145.744 122.35 156.859C116.829 161.889 111.146 167.975 105.788 175.114C98.9681 169.922 92.0672 163.918 88.4949 159.861C90.687 156.291 92.9602 152.559 95.5582 148.746C102.297 138.685 109.36 129.679 114.719 123.188V123.269ZM119.996 205.783C118.616 199.861 116.018 189.719 112.689 182.579C117.235 176.25 122.107 170.814 126.978 166.19C132.661 176.737 140.374 187.122 150.035 197.427C139.643 201.889 126.816 204.566 120.077 205.783H119.996ZM134.61 159.537C145.083 151.18 154.176 146.636 157.992 145.013C162.863 147.529 170.251 151.666 177.72 156.616C168.221 171.382 161.077 183.715 157.18 190.611C147.519 180.307 139.968 169.922 134.61 159.537ZM205.243 210.002C206.217 216.169 208.328 228.014 210.602 235.803C208.004 239.211 198.18 242.862 189.006 244.566C178.857 232.801 170.738 215.925 166.435 205.783C180.562 208.461 197.693 209.597 205.243 210.002ZM217.746 242.619C224.322 245.458 237.8 250.57 253.388 251.3L253.144 306.796C226.19 292.679 204.35 265.418 195.501 253.328C202.726 251.625 212.631 248.379 217.746 242.619ZM263.536 251.381C279.124 250.894 292.683 245.945 299.34 243.187C304.374 248.947 314.279 252.355 321.423 254.14C312.411 266.148 290.247 293.085 263.13 306.878L263.536 251.381ZM327.999 245.458C318.825 243.592 309.083 239.941 306.566 236.452C308.92 228.663 311.112 216.899 312.249 210.733C319.962 210.408 337.011 209.516 351.138 207C346.673 217.061 338.391 233.856 327.999 245.458ZM360.556 191.909C356.74 185.013 349.758 172.599 340.421 157.67C347.89 152.802 355.36 148.746 360.312 146.312C364.047 148.015 373.14 152.64 383.451 161.159C377.93 171.545 370.298 181.768 360.475 191.991L360.556 191.909ZM391.082 167.893C395.873 172.518 400.663 178.035 405.128 184.445C401.637 191.504 398.876 201.646 397.496 207.568C390.839 206.27 378.011 203.431 367.7 198.806C377.524 188.664 385.318 178.36 391.082 167.893ZM412.11 177.143C406.833 169.841 401.231 163.756 395.71 158.644C400.581 147.61 403.342 136.413 403.829 125.135C409.106 131.707 416.007 140.794 422.665 151.017C425.181 154.831 427.455 158.563 429.566 162.214C425.912 166.19 418.93 172.031 412.029 177.224L412.11 177.143ZM354.223 103.067C352.924 96.3325 350.001 83.8377 344.318 76.211C347.484 72.6411 354.385 66.0692 367.213 59.7406C372.896 65.5012 387.267 82.1339 392.3 105.338C383.207 104.446 366.726 102.986 354.223 103.148V103.067ZM336.443 70.207C329.948 67.2051 316.308 62.0936 300.964 62.986C293.17 38.2399 280.91 20.7148 272.792 10.9786C301.776 15.1165 342.857 42.0532 358.688 53.0876C346.754 59.6595 339.853 66.2314 336.443 70.207ZM218.396 62.4992C203.051 61.3633 189.33 66.3937 182.835 69.2334C179.507 65.2578 172.768 58.6048 160.996 51.8706C177.152 41.323 218.396 15.9278 247.461 12.0333C238.936 21.445 226.352 38.2399 218.396 62.4992ZM152.146 58.3614C164.893 64.8521 171.713 71.5052 174.798 75.1563C169.033 82.7018 165.867 95.1966 164.568 101.85C152.065 101.606 135.584 102.823 126.491 103.553C131.768 80.43 146.382 64.0408 152.146 58.2802V58.3614ZM155.556 205.783C159.047 214.546 166.922 232.315 177.72 246.513C157.992 248.379 142.485 239.698 140.212 238.319C135.827 234.262 126.247 224.12 122.513 215.52C130.225 214.14 144.19 211.057 155.637 205.865L155.556 205.783ZM138.425 248.623C145.976 252.517 163.594 259.495 184.784 255.519C190.223 263.389 206.623 285.864 229.275 303.226C180.968 291.137 146.95 275.154 123.243 259.738C128.115 257.061 134.123 253.166 138.425 248.623ZM331.978 256.493C353.168 260.793 370.785 253.978 378.417 250.245C382.639 254.951 388.728 258.927 393.599 261.685C370.623 276.046 336.443 291.949 286.837 303.713C309.651 286.594 326.457 264.363 331.978 256.574V256.493ZM376.793 239.86C374.439 241.239 359.013 249.759 339.203 247.568C350.082 233.613 358.201 215.844 361.855 207.163C373.221 212.518 387.185 215.763 394.817 217.223C391.001 225.824 381.177 235.884 376.793 239.86ZM436.71 154.831C425.831 136.494 412.922 120.43 406.346 112.641C420.96 106.231 438.09 105.42 445.397 105.42C449.294 112.965 452.055 121.565 452.542 131.22C449.132 138.685 442.556 150.125 436.629 154.831H436.71ZM402.043 103.716C397.659 82.7829 386.617 66.9617 378.985 58.1179C397.09 59.4972 416.819 73.1279 417.063 73.2902C417.306 73.4524 429.322 81.4848 439.308 95.6023C429.809 96.0891 415.114 97.7929 401.88 103.716H402.043ZM418.768 62.4992C409.918 57.0632 388.078 45.2986 369.324 48.544C362.423 43.5137 337.58 25.9885 311.112 13.5749C356.09 19.5789 397.577 33.0473 431.676 52.9253C427.536 55.1971 422.421 58.4425 418.768 62.4181V62.4992ZM150.198 47.1647C131.443 43.6759 109.604 55.0348 100.592 60.3897C97.1008 56.333 92.2295 52.8442 88.4137 50.4101C123.487 30.6132 166.273 17.6316 212.307 12.5201C184.378 24.2847 157.505 42.2155 150.198 47.1647ZM101.891 71.2618C102.134 71.0995 122.026 57.7123 140.13 56.5764C132.418 65.339 121.132 81.0791 116.505 101.931C103.352 95.9268 88.7384 93.9796 79.2395 93.3305C89.3879 79.3753 101.566 71.4241 101.729 71.3429L101.891 71.2618ZM55.9385 127.326C48.1445 134.709 40.8375 142.011 34.3425 149.232C31.1762 136.738 31.4197 114.426 32.0692 102.012C33.1247 102.012 34.2613 101.85 35.3168 101.769C44.0039 101.201 52.9346 100.551 62.6771 101.85C59.186 109.314 56.6692 117.833 55.9385 127.245V127.326ZM38.2395 159.699C44.491 152.64 51.5544 145.338 59.1048 137.955C62.5959 145.013 68.8474 155.723 76.3167 161.078C69.4157 173.492 64.0573 186.554 62.5959 198.4C54.3148 189.313 42.4613 174.303 38.2395 159.699ZM112.202 216.574C115.612 226.797 125.111 237.345 130.388 242.619C125.923 247.081 118.616 251.138 113.907 253.41C93.0414 238.319 81.9187 224.526 76.4791 216.412C89.4691 217.142 104.976 216.818 112.121 216.574H112.202ZM198.423 304.93C156.206 298.277 117.317 284.89 85.085 265.661C87.2771 265.742 89.6315 265.823 91.986 265.823C98.8058 265.823 105.788 265.499 111.796 264.444C131.93 278.318 159.859 292.76 198.423 304.849V304.93ZM404.722 266.391C411.298 267.608 419.092 268.095 426.318 268.176C427.942 268.176 429.566 268.176 431.108 268.176C398.714 286.837 359.744 299.657 317.607 305.742C356.253 294.139 384.425 280.022 404.722 266.391ZM402.936 255.357C398.308 253.085 390.92 248.866 386.455 244.241C391.813 239.049 401.393 228.582 404.966 218.44C412.191 218.765 427.617 219.252 440.688 218.684C435.979 225.743 426.805 237.102 410.649 249.677C408.294 251.544 405.696 253.41 402.936 255.357ZM454.815 200.915C453.435 189.07 448.239 176.007 441.581 163.431C449.051 158.157 455.464 147.529 459.037 140.551C466.587 148.015 473.488 155.318 479.659 162.539C475.274 177.062 463.177 191.909 454.815 200.915ZM487.047 171.382C495.734 182.254 500.28 189.719 502.229 193.045C498.656 202.538 493.542 211.787 486.965 220.631C478.441 218.765 466.262 214.303 458.631 211.382C466.425 203.431 480.146 187.934 487.047 171.382ZM505.963 180.388C502.635 175.439 497.926 168.867 491.187 160.835C495.896 150.125 496.627 130.085 496.546 115.724C504.258 130.328 508.318 145.581 508.237 161.24C508.237 167.731 507.425 174.141 505.963 180.469V180.388ZM481.851 94.0607C472.676 93.4928 462.447 93.3305 451.08 95.1966C443.043 81.9716 432.732 72.8034 426.968 68.2598C430.783 64.6087 437.116 61.1199 441.5 59.1727C457.819 69.8014 471.296 81.5659 481.851 94.0607ZM78.5088 56.2518C81.8375 57.9557 88.2513 61.8501 92.1483 65.988C86.3028 70.4504 75.8296 79.5376 67.6296 92.6814C56.1009 90.653 45.6276 91.1398 36.291 91.7889C47.2514 78.8885 61.3781 66.9616 78.5088 56.1707V56.2518ZM21.6772 113.046C21.4336 127.245 22.0831 147.123 26.7108 157.833C19.9722 165.784 15.101 172.275 11.6911 177.224C10.3921 170.895 9.66137 164.486 9.66137 157.995C9.74256 142.498 13.8831 127.407 21.6772 113.046ZM36.4534 225.743C46.5207 223.39 58.7801 219.171 65.1128 216.899C69.0098 224.039 78.8335 238.968 100.024 255.844C86.7899 256.493 72.0137 254.951 67.9543 254.546C55.5326 245.54 44.9781 235.884 36.4534 225.743ZM448.076 257.385C444.585 257.71 429.809 258.846 416.494 257.872C437.847 241.321 447.914 226.554 451.973 219.414C458.225 221.848 470.078 226.392 480.064 229.069C471.296 239.049 460.579 248.542 448.076 257.304V257.385Z" fill="white"/>
<path d="M496.191 229.852C503.985 219.548 509.993 208.757 514.134 197.398C514.458 196.83 514.702 196.262 514.783 195.613C518.355 185.147 520.304 174.275 520.385 163.159C520.953 75.2902 405.179 2.99898 262.37 2.1065C262.37 2.1065 262.289 2.1065 262.207 2.1065C262.207 2.1065 262.126 2.1065 262.045 2.1065C119.235 1.21401 2.56832 71.9636 2 159.833C2 170.948 3.70495 181.82 7.19603 192.368C7.27722 193.017 7.52078 193.585 7.84554 194.153C32.8514 266.201 136.285 320.885 260.178 321.697C363.124 322.346 452.431 285.673 494.567 232.124C495.298 231.556 495.866 230.826 496.191 229.933V229.852ZM17.5069 191.881C19.4554 188.554 24.1643 181.171 32.9326 170.38C39.59 186.932 53.0672 202.591 60.6989 210.623C52.7425 213.382 40.2395 217.438 31.796 218.899C25.5445 210.136 20.7544 201.13 17.4257 191.8L17.5069 191.881ZM485.961 154.153C479.466 146.851 472.322 139.468 464.609 132.003C464.041 122.592 461.605 113.992 458.195 106.446C469.237 104.986 479.06 105.635 488.559 106.284C489.128 118.86 489.209 141.577 485.961 154.153ZM447.397 210.542C435.138 211.435 418.332 210.948 409.564 210.623C411.187 204.051 413.867 194.883 416.789 189.609C421.092 186.526 430.185 179.711 436.68 173.301C444.312 188.23 447.965 200.887 447.397 210.542ZM74.2573 208.108C73.7702 198.453 77.586 185.877 85.4612 170.948C91.8751 177.439 100.806 184.335 105.109 187.5C107.95 192.773 110.548 202.023 112.091 208.595C103.323 208.838 86.4355 209.082 74.2573 208.027V208.108ZM67.9246 130.705C68.5741 121.05 71.4969 112.45 75.4751 104.986C82.8632 105.067 99.9127 106.203 114.445 112.774C107.788 120.482 94.7167 136.385 83.5939 154.559C77.6672 149.772 71.2533 138.332 68.0058 130.786L67.9246 130.705ZM263.019 14.6013C269.433 21.4166 284.128 39.1851 293.059 66.4465C278.364 69.4485 266.673 75.6958 261.72 78.6978C256.768 75.6147 245.158 69.2051 230.544 66.0408C240.449 37.319 257.336 19.9562 263.1 14.6013H263.019ZM186.215 81.6187C188.57 80.4017 201.073 74.3165 215.849 74.2354C212.196 81.781 207.649 94.5191 208.461 110.016C201.479 107.663 190.356 104.742 176.798 104.174C178.584 95.8173 181.994 85.432 186.215 81.6187ZM337.144 82.5923C341.284 86.4868 344.532 96.9532 346.237 105.31C332.679 105.716 321.556 108.474 314.492 110.746C315.548 95.2494 311.083 82.43 307.591 74.8845C322.205 75.1279 334.708 81.3753 337.144 82.5923ZM396.168 121.537C396.411 132.328 394.381 143.119 389.997 153.829C379.93 145.878 371.081 141.334 366.859 139.387C365.235 129.813 362.069 120.888 359.714 115.046C372.461 115.127 388.536 116.669 395.924 117.48C396.005 118.86 396.168 120.158 396.168 121.537ZM299.31 235.288C294.601 237.398 280.962 242.834 265.699 243.483L265.942 208.351C273.087 210.38 285.346 213.057 300.609 213.138C301.746 213.138 302.964 213.138 304.182 213.138C303.045 219.305 301.178 228.96 299.229 235.288H299.31ZM174.037 113.992C188.408 114.235 200.017 117.561 206.512 119.914C198.8 130.3 191.574 140.685 185.241 150.34C177.366 145.147 169.978 141.009 165.837 138.819C167.948 128.271 171.926 118.535 174.037 113.992ZM308.728 181.333C308.728 186.445 308.403 196.262 306.536 203.159C291.435 203.727 278.851 201.455 271.138 199.508C278.201 191.881 285.59 179.63 292.166 167.054C298.823 171.841 304.993 176.871 308.728 181.415V181.333ZM215.281 202.51C213.495 195.613 213.251 185.715 213.413 180.684C217.229 176.222 223.4 171.192 230.138 166.567C236.552 179.305 243.697 191.556 250.76 199.345C243.047 201.212 230.463 203.321 215.362 202.591L215.281 202.51ZM260.908 195.613C254.089 190.015 245.889 176.141 238.419 160.969C248 154.884 257.174 149.853 261.233 147.744C265.211 149.934 274.386 155.127 283.885 161.293C276.172 176.303 267.809 190.096 260.908 195.613ZM266.429 139.306L266.592 119.022C278.039 119.103 293.384 119.833 301.99 121.537C298.661 129.732 293.871 140.928 288.35 152.368C279.257 146.445 270.651 141.577 266.429 139.306ZM256.118 139.306C251.897 141.577 243.291 146.283 234.035 152.125C228.677 140.685 223.968 129.407 220.802 121.131C229.407 119.509 244.752 119.022 256.2 119.022L256.037 139.306H256.118ZM212.845 127.947C215.768 135.249 220.314 146.202 225.673 157.642C219.503 161.942 213.576 166.486 209.029 170.948C204.889 165.756 199.287 160.644 193.279 156.182C199.206 147.257 205.782 137.683 212.845 127.947ZM203.427 180.279C203.427 183.93 203.346 193.585 204.97 202.023C196.039 201.455 180.045 200.238 167.786 197.642C171.52 190.989 178.503 178.981 187.839 164.457C194.497 169.488 200.342 175.005 203.427 180.279ZM222.019 234.801C220.233 228.392 218.447 218.737 217.392 212.57C218.528 212.57 219.746 212.57 220.883 212.652C236.227 212.733 248.568 210.217 255.712 208.27L255.55 243.402C240.205 242.509 226.809 236.992 222.101 234.801H222.019ZM318.552 181.009C321.718 175.816 327.645 170.38 334.302 165.431C343.395 180.035 350.215 192.206 353.869 198.859C341.69 201.293 325.696 202.347 316.685 202.753C318.39 194.315 318.552 184.66 318.471 181.009H318.552ZM313.112 171.597C308.647 167.054 302.801 162.429 296.631 158.129C302.152 146.77 306.861 135.898 309.865 128.596C316.847 138.332 323.342 147.987 329.106 157.074C323.098 161.537 317.334 166.486 313.193 171.678L313.112 171.597ZM316.36 120.645C322.855 118.373 334.546 115.29 348.916 115.209C350.946 119.833 354.843 129.651 356.791 140.117C352.651 142.226 345.182 146.202 337.225 151.314C330.974 141.577 323.991 131.111 316.36 120.563V120.645ZM296.875 75.777C299.879 81.2941 306.049 95.0871 304.425 112.044C293.384 109.691 275.441 109.205 266.592 109.123L266.754 87.217C271.3 84.4584 282.829 78.2922 296.875 75.777ZM256.281 109.042C247.35 109.042 229.489 109.286 218.366 111.395C216.905 94.438 223.318 80.7262 226.404 75.2902C240.449 77.9676 251.897 84.2961 256.443 87.0547L256.281 108.961V109.042ZM155.77 138.007C151.467 139.874 142.618 144.336 132.388 152.206C128.166 141.415 126.218 130.624 126.624 119.833C126.624 118.454 126.786 117.075 126.948 115.776C134.418 115.127 150.493 113.748 163.158 113.829C160.722 119.671 157.475 128.515 155.689 138.089L155.77 138.007ZM116.719 125.269C117.043 136.547 119.641 147.744 124.35 158.859C118.829 163.889 113.146 169.975 107.788 177.114C100.968 171.922 94.0672 165.918 90.4949 161.861C92.687 158.291 94.9602 154.559 97.5582 150.746C104.297 140.685 111.36 131.679 116.719 125.188V125.269ZM121.996 207.783C120.616 201.861 118.018 191.719 114.689 184.579C119.235 178.25 124.107 172.814 128.978 168.19C134.661 178.737 142.374 189.122 152.035 199.427C141.643 203.889 128.816 206.566 122.077 207.783H121.996ZM136.61 161.537C147.083 153.18 156.176 148.636 159.992 147.013C164.863 149.529 172.251 153.666 179.72 158.616C170.221 173.382 163.077 185.715 159.18 192.611C149.519 182.307 141.968 171.922 136.61 161.537ZM207.243 212.002C208.217 218.169 210.328 230.014 212.602 237.803C210.004 241.211 200.18 244.862 191.006 246.566C180.857 234.801 172.738 217.925 168.435 207.783C182.562 210.461 199.693 211.597 207.243 212.002ZM219.746 244.619C226.322 247.458 239.8 252.57 255.388 253.3L255.144 308.796C228.19 294.679 206.35 267.418 197.501 255.328C204.726 253.625 214.631 250.379 219.746 244.619ZM265.536 253.381C281.124 252.894 294.683 247.945 301.34 245.187C306.374 250.947 316.279 254.355 323.423 256.14C314.411 268.148 292.247 295.085 265.13 308.878L265.536 253.381ZM329.999 247.458C320.825 245.592 311.083 241.941 308.566 238.452C310.92 230.663 313.112 218.899 314.249 212.733C321.962 212.408 339.011 211.516 353.138 209C348.673 219.061 340.391 235.856 329.999 247.458ZM362.556 193.909C358.74 187.013 351.758 174.599 342.421 159.67C349.89 154.802 357.36 150.746 362.312 148.312C366.047 150.015 375.14 154.64 385.451 163.159C379.93 173.545 372.298 183.768 362.475 193.991L362.556 193.909ZM393.082 169.893C397.873 174.518 402.663 180.035 407.128 186.445C403.637 193.504 400.876 203.646 399.496 209.568C392.839 208.27 380.011 205.431 369.7 200.806C379.524 190.664 387.318 180.36 393.082 169.893ZM414.11 179.143C408.833 171.841 403.231 165.756 397.71 160.644C402.581 149.61 405.342 138.413 405.829 127.135C411.106 133.707 418.007 142.794 424.665 153.017C427.181 156.831 429.455 160.563 431.566 164.214C427.912 168.19 420.93 174.031 414.029 179.224L414.11 179.143ZM356.223 105.067C354.924 98.3325 352.001 85.8377 346.318 78.211C349.484 74.6411 356.385 68.0692 369.213 61.7406C374.896 67.5012 389.267 84.1339 394.3 107.338C385.207 106.446 368.726 104.986 356.223 105.148V105.067ZM338.443 72.207C331.948 69.2051 318.308 64.0936 302.964 64.986C295.17 40.2399 282.91 22.7148 274.792 12.9786C303.776 17.1165 344.857 44.0532 360.688 55.0876C348.754 61.6595 341.853 68.2314 338.443 72.207ZM220.396 64.4992C205.051 63.3633 191.33 68.3937 184.835 71.2334C181.507 67.2578 174.768 60.6048 162.996 53.8706C179.152 43.323 220.396 17.9278 249.461 14.0333C240.936 23.445 228.352 40.2399 220.396 64.4992ZM154.146 60.3614C166.893 66.8521 173.713 73.5052 176.798 77.1563C171.033 84.7018 167.867 97.1966 166.568 103.85C154.065 103.606 137.584 104.823 128.491 105.553C133.768 82.43 148.382 66.0408 154.146 60.2802V60.3614ZM157.556 207.783C161.047 216.546 168.922 234.315 179.72 248.513C159.992 250.379 144.485 241.698 142.212 240.319C137.827 236.262 128.247 226.12 124.513 217.52C132.225 216.14 146.19 213.057 157.637 207.865L157.556 207.783ZM140.425 250.623C147.976 254.517 165.594 261.495 186.784 257.519C192.223 265.389 208.623 287.864 231.275 305.226C182.968 293.137 148.95 277.154 125.243 261.738C130.115 259.061 136.123 255.166 140.425 250.623ZM333.978 258.493C355.168 262.793 372.785 255.978 380.417 252.245C384.639 256.951 390.728 260.927 395.599 263.685C372.623 278.046 338.443 293.949 288.837 305.713C311.651 288.594 328.457 266.363 333.978 258.574V258.493ZM378.793 241.86C376.439 243.239 361.013 251.759 341.203 249.568C352.082 235.613 360.201 217.844 363.855 209.163C375.221 214.518 389.185 217.763 396.817 219.223C393.001 227.824 383.177 237.884 378.793 241.86ZM438.71 156.831C427.831 138.494 414.922 122.43 408.346 114.641C422.96 108.231 440.09 107.42 447.397 107.42C451.294 114.965 454.055 123.565 454.542 133.22C451.132 140.685 444.556 152.125 438.629 156.831H438.71ZM404.043 105.716C399.659 84.7829 388.617 68.9617 380.985 60.1179C399.09 61.4972 418.819 75.1279 419.063 75.2902C419.306 75.4524 431.322 83.4848 441.308 97.6023C431.809 98.0891 417.114 99.7929 403.88 105.716H404.043ZM420.768 64.4992C411.918 59.0632 390.078 47.2986 371.324 50.544C364.423 45.5137 339.58 27.9885 313.112 15.5749C358.09 21.5789 399.577 35.0473 433.676 54.9253C429.536 57.1971 424.421 60.4425 420.768 64.4181V64.4992ZM152.198 49.1647C133.443 45.6759 111.604 57.0348 102.592 62.3897C99.1008 58.333 94.2295 54.8442 90.4137 52.4101C125.487 32.6132 168.273 19.6316 214.307 14.5201C186.378 26.2847 159.505 44.2155 152.198 49.1647ZM103.891 73.2618C104.134 73.0995 124.026 59.7123 142.13 58.5764C134.418 67.339 123.132 83.0791 118.505 103.931C105.352 97.9268 90.7384 95.9796 81.2395 95.3305C91.3879 81.3753 103.566 73.4241 103.729 73.3429L103.891 73.2618ZM57.9385 129.326C50.1445 136.709 42.8375 144.011 36.3425 151.232C33.1762 138.738 33.4197 116.426 34.0692 104.012C35.1247 104.012 36.2613 103.85 37.3168 103.769C46.0039 103.201 54.9346 102.551 64.6771 103.85C61.186 111.314 58.6692 119.833 57.9385 129.245V129.326ZM40.2395 161.699C46.491 154.64 53.5544 147.338 61.1048 139.955C64.5959 147.013 70.8474 157.723 78.3167 163.078C71.4157 175.492 66.0573 188.554 64.5959 200.4C56.3148 191.313 44.4613 176.303 40.2395 161.699ZM114.202 218.574C117.612 228.797 127.111 239.345 132.388 244.619C127.923 249.081 120.616 253.138 115.907 255.41C95.0414 240.319 83.9187 226.526 78.4791 218.412C91.4691 219.142 106.976 218.818 114.121 218.574H114.202ZM200.423 306.93C158.206 300.277 119.317 286.89 87.085 267.661C89.2771 267.742 91.6315 267.823 93.986 267.823C100.806 267.823 107.788 267.499 113.796 266.444C133.93 280.318 161.859 294.76 200.423 306.849V306.93ZM406.722 268.391C413.298 269.608 421.092 270.095 428.318 270.176C429.942 270.176 431.566 270.176 433.108 270.176C400.714 288.837 361.744 301.657 319.607 307.742C358.253 296.139 386.425 282.022 406.722 268.391ZM404.936 257.357C400.308 255.085 392.92 250.866 388.455 246.241C393.813 241.049 403.393 230.582 406.966 220.44C414.191 220.765 429.617 221.252 442.688 220.684C437.979 227.743 428.805 239.102 412.649 251.677C410.294 253.544 407.696 255.41 404.936 257.357ZM456.815 202.915C455.435 191.07 450.239 178.007 443.581 165.431C451.051 160.157 457.464 149.529 461.037 142.551C468.587 150.015 475.488 157.318 481.659 164.539C477.274 179.062 465.177 193.909 456.815 202.915ZM489.047 173.382C497.734 184.254 502.28 191.719 504.229 195.045C500.656 204.538 495.542 213.787 488.965 222.631C480.441 220.765 468.262 216.303 460.631 213.382C468.425 205.431 482.146 189.934 489.047 173.382ZM507.963 182.388C504.635 177.439 499.926 170.867 493.187 162.835C497.896 152.125 498.627 132.085 498.546 117.724C506.258 132.328 510.318 147.581 510.237 163.24C510.237 169.731 509.425 176.141 507.963 182.469V182.388ZM483.851 96.0607C474.676 95.4928 464.447 95.3305 453.08 97.1966C445.043 83.9716 434.732 74.8034 428.968 70.2598C432.783 66.6087 439.116 63.1199 443.5 61.1727C459.819 71.8014 473.296 83.5659 483.851 96.0607ZM80.5088 58.2518C83.8375 59.9557 90.2513 63.8501 94.1483 67.988C88.3028 72.4504 77.8296 81.5376 69.6296 94.6814C58.1009 92.653 47.6276 93.1398 38.291 93.7889C49.2514 80.8885 63.3781 68.9616 80.5088 58.1707V58.2518ZM23.6772 115.046C23.4336 129.245 24.0831 149.123 28.7108 159.833C21.9722 167.784 17.101 174.275 13.6911 179.224C12.3921 172.895 11.6614 166.486 11.6614 159.995C11.7426 144.498 15.8831 129.407 23.6772 115.046ZM38.4534 227.743C48.5207 225.39 60.7801 221.171 67.1128 218.899C71.0098 226.039 80.8335 240.968 102.024 257.844C88.7899 258.493 74.0137 256.951 69.9543 256.546C57.5326 247.54 46.9781 237.884 38.4534 227.743ZM450.076 259.385C446.585 259.71 431.809 260.846 418.494 259.872C439.847 243.321 449.914 228.554 453.973 221.414C460.225 223.848 472.078 228.392 482.064 231.069C473.296 241.049 462.579 250.542 450.076 259.304V259.385Z" fill="#B5B5B5"/>
<path d="M495.191 228.852C502.985 218.548 508.993 207.757 513.134 196.398C513.458 195.83 513.702 195.262 513.783 194.613C517.355 184.147 519.304 173.275 519.385 162.159C519.953 74.2902 404.179 1.99898 261.37 1.1065C261.37 1.1065 261.289 1.1065 261.207 1.1065C261.207 1.1065 261.126 1.1065 261.045 1.1065C118.235 0.214013 1.56832 70.9636 1 158.833C1 169.948 2.70495 180.82 6.19603 191.368C6.27722 192.017 6.52078 192.585 6.84554 193.153C31.8514 265.201 135.285 319.885 259.178 320.697C362.124 321.346 451.431 284.673 493.567 231.124C494.298 230.556 494.866 229.826 495.191 228.933V228.852ZM16.5069 190.881C18.4554 187.554 23.1643 180.171 31.9326 169.38C38.59 185.932 52.0672 201.591 59.6989 209.623C51.7425 212.382 39.2395 216.438 30.796 217.899C24.5445 209.136 19.7544 200.13 16.4257 190.8L16.5069 190.881ZM484.961 153.153C478.466 145.851 471.322 138.468 463.609 131.003C463.041 121.592 460.605 112.992 457.195 105.446C468.237 103.986 478.06 104.635 487.559 105.284C488.128 117.86 488.209 140.577 484.961 153.153ZM446.397 209.542C434.138 210.435 417.332 209.948 408.564 209.623C410.187 203.051 412.867 193.883 415.789 188.609C420.092 185.526 429.185 178.711 435.68 172.301C443.312 187.23 446.965 199.887 446.397 209.542ZM73.2573 207.108C72.7702 197.453 76.586 184.877 84.4612 169.948C90.8751 176.439 99.8058 183.335 104.109 186.5C106.95 191.773 109.548 201.023 111.091 207.595C102.323 207.838 85.4355 208.082 73.2573 207.027V207.108ZM66.9246 129.705C67.5741 120.05 70.4969 111.45 74.4751 103.986C81.8632 104.067 98.9127 105.203 113.445 111.774C106.788 119.482 93.7167 135.385 82.5939 153.559C76.6672 148.772 70.2533 137.332 67.0058 129.786L66.9246 129.705ZM262.019 13.6013C268.433 20.4166 283.128 38.1851 292.059 65.4465C277.364 68.4485 265.673 74.6958 260.72 77.6978C255.768 74.6147 244.158 68.2051 229.544 65.0408C239.449 36.319 256.336 18.9562 262.1 13.6013H262.019ZM185.215 80.6187C187.57 79.4017 200.073 73.3165 214.849 73.2354C211.196 80.781 206.649 93.5191 207.461 109.016C200.479 106.663 189.356 103.742 175.798 103.174C177.584 94.8173 180.994 84.432 185.215 80.6187ZM336.144 81.5923C340.284 85.4868 343.532 95.9532 345.237 104.31C331.679 104.716 320.556 107.474 313.492 109.746C314.548 94.2494 310.083 81.43 306.591 73.8845C321.205 74.1279 333.708 80.3753 336.144 81.5923ZM395.168 120.537C395.411 131.328 393.381 142.119 388.997 152.829C378.93 144.878 370.081 140.334 365.859 138.387C364.235 128.813 361.069 119.888 358.714 114.046C371.461 114.127 387.536 115.669 394.924 116.48C395.005 117.86 395.168 119.158 395.168 120.537ZM298.31 234.288C293.601 236.398 279.962 241.834 264.699 242.483L264.942 207.351C272.087 209.38 284.346 212.057 299.609 212.138C300.746 212.138 301.964 212.138 303.182 212.138C302.045 218.305 300.178 227.96 298.229 234.288H298.31ZM173.037 112.992C187.408 113.235 199.017 116.561 205.512 118.914C197.8 129.3 190.574 139.685 184.241 149.34C176.366 144.147 168.978 140.009 164.837 137.819C166.948 127.271 170.926 117.535 173.037 112.992ZM307.728 180.333C307.728 185.445 307.403 195.262 305.536 202.159C290.435 202.727 277.851 200.455 270.138 198.508C277.201 190.881 284.59 178.63 291.166 166.054C297.823 170.841 303.993 175.871 307.728 180.415V180.333ZM214.281 201.51C212.495 194.613 212.251 184.715 212.413 179.684C216.229 175.222 222.4 170.192 229.138 165.567C235.552 178.305 242.697 190.556 249.76 198.345C242.047 200.212 229.463 202.321 214.362 201.591L214.281 201.51ZM259.908 194.613C253.089 189.015 244.889 175.141 237.419 159.969C247 153.884 256.174 148.853 260.233 146.744C264.211 148.934 273.386 154.127 282.885 160.293C275.172 175.303 266.809 189.096 259.908 194.613ZM265.429 138.306L265.592 118.022C277.039 118.103 292.384 118.833 300.99 120.537C297.661 128.732 292.871 139.928 287.35 151.368C278.257 145.445 269.651 140.577 265.429 138.306ZM255.118 138.306C250.897 140.577 242.291 145.283 233.035 151.125C227.677 139.685 222.968 128.407 219.802 120.131C228.407 118.509 243.752 118.022 255.2 118.022L255.037 138.306H255.118ZM211.845 126.947C214.768 134.249 219.314 145.202 224.673 156.642C218.503 160.942 212.576 165.486 208.029 169.948C203.889 164.756 198.287 159.644 192.279 155.182C198.206 146.257 204.782 136.683 211.845 126.947ZM202.427 179.279C202.427 182.93 202.346 192.585 203.97 201.023C195.039 200.455 179.045 199.238 166.786 196.642C170.52 189.989 177.503 177.981 186.839 163.457C193.497 168.488 199.342 174.005 202.427 179.279ZM221.019 233.801C219.233 227.392 217.447 217.737 216.392 211.57C217.528 211.57 218.746 211.57 219.883 211.652C235.227 211.733 247.568 209.217 254.712 207.27L254.55 242.402C239.205 241.509 225.809 235.992 221.101 233.801H221.019ZM317.552 180.009C320.718 174.816 326.645 169.38 333.302 164.431C342.395 179.035 349.215 191.206 352.869 197.859C340.69 200.293 324.696 201.347 315.685 201.753C317.39 193.315 317.552 183.66 317.471 180.009H317.552ZM312.112 170.597C307.647 166.054 301.801 161.429 295.631 157.129C301.152 145.77 305.861 134.898 308.865 127.596C315.847 137.332 322.342 146.987 328.106 156.074C322.098 160.537 316.334 165.486 312.193 170.678L312.112 170.597ZM315.36 119.645C321.855 117.373 333.546 114.29 347.916 114.209C349.946 118.833 353.843 128.651 355.791 139.117C351.651 141.226 344.182 145.202 336.225 150.314C329.974 140.577 322.991 130.111 315.36 119.563V119.645ZM295.875 74.777C298.879 80.2941 305.049 94.0871 303.425 111.044C292.384 108.691 274.441 108.205 265.592 108.123L265.754 86.217C270.3 83.4584 281.829 77.2922 295.875 74.777ZM255.281 108.042C246.35 108.042 228.489 108.286 217.366 110.395C215.905 93.438 222.318 79.7262 225.404 74.2902C239.449 76.9676 250.897 83.2961 255.443 86.0547L255.281 107.961V108.042ZM154.77 137.007C150.467 138.874 141.618 143.336 131.388 151.206C127.166 140.415 125.218 129.624 125.624 118.833C125.624 117.454 125.786 116.075 125.948 114.776C133.418 114.127 149.493 112.748 162.158 112.829C159.722 118.671 156.475 127.515 154.689 137.089L154.77 137.007ZM115.719 124.269C116.043 135.547 118.641 146.744 123.35 157.859C117.829 162.889 112.146 168.975 106.788 176.114C99.9681 170.922 93.0672 164.918 89.4949 160.861C91.687 157.291 93.9602 153.559 96.5582 149.746C103.297 139.685 110.36 130.679 115.719 124.188V124.269ZM120.996 206.783C119.616 200.861 117.018 190.719 113.689 183.579C118.235 177.25 123.107 171.814 127.978 167.19C133.661 177.737 141.374 188.122 151.035 198.427C140.643 202.889 127.816 205.566 121.077 206.783H120.996ZM135.61 160.537C146.083 152.18 155.176 147.636 158.992 146.013C163.863 148.529 171.251 152.666 178.72 157.616C169.221 172.382 162.077 184.715 158.18 191.611C148.519 181.307 140.968 170.922 135.61 160.537ZM206.243 211.002C207.217 217.169 209.328 229.014 211.602 236.803C209.004 240.211 199.18 243.862 190.006 245.566C179.857 233.801 171.738 216.925 167.435 206.783C181.562 209.461 198.693 210.597 206.243 211.002ZM218.746 243.619C225.322 246.458 238.8 251.57 254.388 252.3L254.144 307.796C227.19 293.679 205.35 266.418 196.501 254.328C203.726 252.625 213.631 249.379 218.746 243.619ZM264.536 252.381C280.124 251.894 293.683 246.945 300.34 244.187C305.374 249.947 315.279 253.355 322.423 255.14C313.411 267.148 291.247 294.085 264.13 307.878L264.536 252.381ZM328.999 246.458C319.825 244.592 310.083 240.941 307.566 237.452C309.92 229.663 312.112 217.899 313.249 211.733C320.962 211.408 338.011 210.516 352.138 208C347.673 218.061 339.391 234.856 328.999 246.458ZM361.556 192.909C357.74 186.013 350.758 173.599 341.421 158.67C348.89 153.802 356.36 149.746 361.312 147.312C365.047 149.015 374.14 153.64 384.451 162.159C378.93 172.545 371.298 182.768 361.475 192.991L361.556 192.909ZM392.082 168.893C396.873 173.518 401.663 179.035 406.128 185.445C402.637 192.504 399.876 202.646 398.496 208.568C391.839 207.27 379.011 204.431 368.7 199.806C378.524 189.664 386.318 179.36 392.082 168.893ZM413.11 178.143C407.833 170.841 402.231 164.756 396.71 159.644C401.581 148.61 404.342 137.413 404.829 126.135C410.106 132.707 417.007 141.794 423.665 152.017C426.181 155.831 428.455 159.563 430.566 163.214C426.912 167.19 419.93 173.031 413.029 178.224L413.11 178.143ZM355.223 104.067C353.924 97.3325 351.001 84.8377 345.318 77.211C348.484 73.6411 355.385 67.0692 368.213 60.7406C373.896 66.5012 388.267 83.1339 393.3 106.338C384.207 105.446 367.726 103.986 355.223 104.148V104.067ZM337.443 71.207C330.948 68.2051 317.308 63.0936 301.964 63.986C294.17 39.2399 281.91 21.7148 273.792 11.9786C302.776 16.1165 343.857 43.0532 359.688 54.0876C347.754 60.6595 340.853 67.2314 337.443 71.207ZM219.396 63.4992C204.051 62.3633 190.33 67.3937 183.835 70.2334C180.507 66.2578 173.768 59.6048 161.996 52.8706C178.152 42.323 219.396 16.9278 248.461 13.0333C239.936 22.445 227.352 39.2399 219.396 63.4992ZM153.146 59.3614C165.893 65.8521 172.713 72.5052 175.798 76.1563C170.033 83.7018 166.867 96.1966 165.568 102.85C153.065 102.606 136.584 103.823 127.491 104.553C132.768 81.43 147.382 65.0408 153.146 59.2802V59.3614ZM156.556 206.783C160.047 215.546 167.922 233.315 178.72 247.513C158.992 249.379 143.485 240.698 141.212 239.319C136.827 235.262 127.247 225.12 123.513 216.52C131.225 215.14 145.19 212.057 156.637 206.865L156.556 206.783ZM139.425 249.623C146.976 253.517 164.594 260.495 185.784 256.519C191.223 264.389 207.623 286.864 230.275 304.226C181.968 292.137 147.95 276.154 124.243 260.738C129.115 258.061 135.123 254.166 139.425 249.623ZM332.978 257.493C354.168 261.793 371.785 254.978 379.417 251.245C383.639 255.951 389.728 259.927 394.599 262.685C371.623 277.046 337.443 292.949 287.837 304.713C310.651 287.594 327.457 265.363 332.978 257.574V257.493ZM377.793 240.86C375.439 242.239 360.013 250.759 340.203 248.568C351.082 234.613 359.201 216.844 362.855 208.163C374.221 213.518 388.185 216.763 395.817 218.223C392.001 226.824 382.177 236.884 377.793 240.86ZM437.71 155.831C426.831 137.494 413.922 121.43 407.346 113.641C421.96 107.231 439.09 106.42 446.397 106.42C450.294 113.965 453.055 122.565 453.542 132.22C450.132 139.685 443.556 151.125 437.629 155.831H437.71ZM403.043 104.716C398.659 83.7829 387.617 67.9617 379.985 59.1179C398.09 60.4972 417.819 74.1279 418.063 74.2902C418.306 74.4524 430.322 82.4848 440.308 96.6023C430.809 97.0891 416.114 98.7929 402.88 104.716H403.043ZM419.768 63.4992C410.918 58.0632 389.078 46.2986 370.324 49.544C363.423 44.5137 338.58 26.9885 312.112 14.5749C357.09 20.5789 398.577 34.0473 432.676 53.9253C428.536 56.1971 423.421 59.4425 419.768 63.4181V63.4992ZM151.198 48.1647C132.443 44.6759 110.604 56.0348 101.592 61.3897C98.1008 57.333 93.2295 53.8442 89.4137 51.4101C124.487 31.6132 167.273 18.6316 213.307 13.5201C185.378 25.2847 158.505 43.2155 151.198 48.1647ZM102.891 72.2618C103.134 72.0995 123.026 58.7123 141.13 57.5764C133.418 66.339 122.132 82.0791 117.505 102.931C104.352 96.9268 89.7384 94.9796 80.2395 94.3305C90.3879 80.3753 102.566 72.4241 102.729 72.3429L102.891 72.2618ZM56.9385 128.326C49.1445 135.709 41.8375 143.011 35.3425 150.232C32.1762 137.738 32.4197 115.426 33.0692 103.012C34.1247 103.012 35.2613 102.85 36.3168 102.769C45.0039 102.201 53.9346 101.551 63.6771 102.85C60.186 110.314 57.6692 118.833 56.9385 128.245V128.326ZM39.2395 160.699C45.491 153.64 52.5544 146.338 60.1048 138.955C63.5959 146.013 69.8474 156.723 77.3167 162.078C70.4157 174.492 65.0573 187.554 63.5959 199.4C55.3148 190.313 43.4613 175.303 39.2395 160.699ZM113.202 217.574C116.612 227.797 126.111 238.345 131.388 243.619C126.923 248.081 119.616 252.138 114.907 254.41C94.0414 239.319 82.9187 225.526 77.4791 217.412C90.4691 218.142 105.976 217.818 113.121 217.574H113.202ZM199.423 305.93C157.206 299.277 118.317 285.89 86.085 266.661C88.2771 266.742 90.6315 266.823 92.986 266.823C99.8058 266.823 106.788 266.499 112.796 265.444C132.93 279.318 160.859 293.76 199.423 305.849V305.93ZM405.722 267.391C412.298 268.608 420.092 269.095 427.318 269.176C428.942 269.176 430.566 269.176 432.108 269.176C399.714 287.837 360.744 300.657 318.607 306.742C357.253 295.139 385.425 281.022 405.722 267.391ZM403.936 256.357C399.308 254.085 391.92 249.866 387.455 245.241C392.813 240.049 402.393 229.582 405.966 219.44C413.191 219.765 428.617 220.252 441.688 219.684C436.979 226.743 427.805 238.102 411.649 250.677C409.294 252.544 406.696 254.41 403.936 256.357ZM455.815 201.915C454.435 190.07 449.239 177.007 442.581 164.431C450.051 159.157 456.464 148.529 460.037 141.551C467.587 149.015 474.488 156.318 480.659 163.539C476.274 178.062 464.177 192.909 455.815 201.915ZM488.047 172.382C496.734 183.254 501.28 190.719 503.229 194.045C499.656 203.538 494.542 212.787 487.965 221.631C479.441 219.765 467.262 215.303 459.631 212.382C467.425 204.431 481.146 188.934 488.047 172.382ZM506.963 181.388C503.635 176.439 498.926 169.867 492.187 161.835C496.896 151.125 497.627 131.085 497.546 116.724C505.258 131.328 509.318 146.581 509.237 162.24C509.237 168.731 508.425 175.141 506.963 181.469V181.388ZM482.851 95.0607C473.676 94.4928 463.447 94.3305 452.08 96.1966C444.043 82.9716 433.732 73.8034 427.968 69.2598C431.783 65.6087 438.116 62.1199 442.5 60.1727C458.819 70.8014 472.296 82.5659 482.851 95.0607ZM79.5088 57.2518C82.8375 58.9557 89.2513 62.8501 93.1483 66.988C87.3028 71.4504 76.8296 80.5376 68.6296 93.6814C57.1009 91.653 46.6276 92.1398 37.291 92.7889C48.2514 79.8885 62.3781 67.9616 79.5088 57.1707V57.2518ZM22.6772 114.046C22.4336 128.245 23.0831 148.123 27.7108 158.833C20.9722 166.784 16.101 173.275 12.6911 178.224C11.3921 171.895 10.6614 165.486 10.6614 158.995C10.7426 143.498 14.8831 128.407 22.6772 114.046ZM37.4534 226.743C47.5207 224.39 59.7801 220.171 66.1128 217.899C70.0098 225.039 79.8335 239.968 101.024 256.844C87.7899 257.493 73.0137 255.951 68.9543 255.546C56.5326 246.54 45.9781 236.884 37.4534 226.743ZM449.076 258.385C445.585 258.71 430.809 259.846 417.494 258.872C438.847 242.321 448.914 227.554 452.973 220.414C459.225 222.848 471.078 227.392 481.064 230.069C472.296 240.049 461.579 249.542 449.076 258.304V258.385Z" fill="#E4E4E4"/>
</svg>
