<svg width="529" height="322" viewBox="0 0 529 322" fill="none" xmlns="http://www.w3.org/2000/svg">
<path d="M101.171 294.157C60.1658 294.157 25.5481 274.932 25.5481 252.194H0C0 290.069 44.4537 319.705 101.171 319.705C157.887 319.705 202.341 290.069 202.341 252.194H176.793C176.793 274.932 142.175 294.157 101.171 294.157ZM461.08 78.5948C482.732 78.5948 500.36 60.9666 500.36 39.3784C500.36 17.7902 482.732 0.0981445 461.08 0.0981445C439.428 0.0981445 421.8 17.7264 421.8 39.3784C421.8 61.0304 439.428 78.5948 461.08 78.5948ZM65.1477 78.5948C86.7998 78.5948 104.428 60.9666 104.428 39.3784C104.428 17.7902 86.7998 0.0981445 65.1477 0.0981445C43.4957 0.0981445 25.8675 17.7264 25.8675 39.3784C25.8675 61.0304 43.4957 78.5948 65.1477 78.5948ZM500.679 252.194C500.679 274.932 466.062 294.157 425.057 294.157C384.052 294.157 349.435 274.932 349.435 252.194H323.886C323.886 290.069 368.34 319.705 425.057 319.705C481.774 319.705 526.228 290.069 526.228 252.194H500.679ZM147.732 24.9437L196.465 163.989H130.04V189.538H232.488L171.811 16.449L147.732 24.8798V24.9437ZM396.06 163.989H329.635L378.368 24.9437L354.289 16.5128L293.612 189.601H396.06V164.053V163.989Z" fill="white"/>
<path d="M103.171 296.157C62.1658 296.157 27.5481 276.932 27.5481 254.194H2C2 292.069 46.4537 321.705 103.171 321.705C159.887 321.705 204.341 292.069 204.341 254.194H178.793C178.793 276.932 144.175 296.157 103.171 296.157ZM463.08 80.5948C484.732 80.5948 502.36 62.9666 502.36 41.3784C502.36 19.7902 484.732 2.09814 463.08 2.09814C441.428 2.09814 423.8 19.7264 423.8 41.3784C423.8 63.0304 441.428 80.5948 463.08 80.5948ZM67.1477 80.5948C88.7998 80.5948 106.428 62.9666 106.428 41.3784C106.428 19.7902 88.7998 2.09814 67.1477 2.09814C45.4957 2.09814 27.8675 19.7264 27.8675 41.3784C27.8675 63.0304 45.4957 80.5948 67.1477 80.5948ZM502.679 254.194C502.679 276.932 468.062 296.157 427.057 296.157C386.052 296.157 351.435 276.932 351.435 254.194H325.886C325.886 292.069 370.34 321.705 427.057 321.705C483.774 321.705 528.228 292.069 528.228 254.194H502.679ZM149.732 26.9437L198.465 165.989H132.04V191.538H234.488L173.811 18.449L149.732 26.8798V26.9437ZM398.06 165.989H331.635L380.368 26.9437L356.289 18.5128L295.612 191.601H398.06V166.053V165.989Z" fill="#B5B5B5"/>
<path d="M102.171 295.157C61.1658 295.157 26.5481 275.932 26.5481 253.194H1C1 291.069 45.4537 320.705 102.171 320.705C158.887 320.705 203.341 291.069 203.341 253.194H177.793C177.793 275.932 143.175 295.157 102.171 295.157ZM462.08 79.5948C483.732 79.5948 501.36 61.9666 501.36 40.3784C501.36 18.7902 483.732 1.09814 462.08 1.09814C440.428 1.09814 422.8 18.7264 422.8 40.3784C422.8 62.0304 440.428 79.5948 462.08 79.5948ZM66.1477 79.5948C87.7998 79.5948 105.428 61.9666 105.428 40.3784C105.428 18.7902 87.7998 1.09814 66.1477 1.09814C44.4957 1.09814 26.8675 18.7264 26.8675 40.3784C26.8675 62.0304 44.4957 79.5948 66.1477 79.5948ZM501.679 253.194C501.679 275.932 467.062 295.157 426.057 295.157C385.052 295.157 350.435 275.932 350.435 253.194H324.886C324.886 291.069 369.34 320.705 426.057 320.705C482.774 320.705 527.228 291.069 527.228 253.194H501.679ZM148.732 25.9437L197.465 164.989H131.04V190.538H233.488L172.811 17.449L148.732 25.8798V25.9437ZM397.06 164.989H330.635L379.368 25.9437L355.289 17.5128L294.612 190.601H397.06V165.053V164.989Z" fill="#E4E4E4"/>
</svg>
