<svg xmlns:xlink="http://www.w3.org/1999/xlink" xmlns="http://www.w3.org/2000/svg" width="114" height="17" viewBox="0 0 114 17" fill="none"><path fill-rule="evenodd" clip-rule="evenodd" d="M69.673 5.53441C68.776 4.00159 66.9451 3.06768 65.2059 3.06768C62.1416 3.06768 59.8977 5.38537 59.8977 8.41271C59.8977 11.4401 62.2332 13.7386 65.1676 13.7386C67.0368 13.7386 68.7186 12.8607 69.7277 11.291H73.0545C71.9894 14.5987 68.6626 16.9355 65.1867 16.9355C63.0194 16.9355 60.7947 15.9824 59.2441 14.4496C57.6553 12.843 56.7966 10.6566 56.7966 8.39493C56.7966 3.85392 60.4597 0.00341797 65.076 0.00341797C66.9629 0.00341797 68.776 0.639242 70.0846 2.0025V0.375341H72.6265V5.55218L69.6744 5.53304L69.673 5.53441ZM73.5782 14.0366H75.353V3.01023H73.5782V0.431377H80.1757V3.01023H78.4378V13.8493H82.3061V11.719H85.3895V16.6155H73.5782V14.0366ZM99.6114 3.01023V0.431377H99.61H93.3311V3.02937H94.8079V10.6347C94.8079 11.4756 94.7518 12.3548 94.2103 13.0645C93.6866 13.7194 92.9387 14.0367 92.1169 14.0367C91.239 14.0367 90.3981 13.6442 89.8935 12.8963C89.445 12.2235 89.4259 11.4004 89.4259 10.6347V3.01023H90.9026V0.431377H84.6046V3.02937H86.3425V10.9341C86.3425 12.6912 86.6406 14.1296 87.9491 15.4191C89.1087 16.5581 90.5089 16.9136 92.1169 16.9136C93.7249 16.9136 95.2386 16.4842 96.3967 15.2878C97.5932 14.0353 97.8735 12.7089 97.8735 11.0271V3.01023H99.6114ZM100.584 14.0367H102.321V3.01023H100.584V0.431377H107.779C108.975 0.431377 110.152 0.543501 111.142 1.27231C112.188 2.05717 112.656 3.19755 112.656 4.48698C112.656 5.96373 111.908 7.29008 110.545 7.9259C112.339 8.65471 113.348 10.1684 113.348 12.0936C113.348 13.3831 112.806 14.6725 111.834 15.5134C110.75 16.4665 109.499 16.5977 108.115 16.5977H100.584V14.038V14.0367ZM107.106 13.9245H105.406V9.4218H107.125C107.91 9.4218 108.714 9.4218 109.368 9.90721C109.965 10.3557 110.245 11.0093 110.245 11.7381C110.245 12.4286 109.946 13.1205 109.348 13.5129C108.738 13.9262 107.905 13.9253 107.195 13.9246L107.106 13.9245ZM105.443 6.89764H106.994C107.047 6.89764 107.1 6.89783 107.152 6.89801C107.842 6.90044 108.496 6.90274 109.087 6.48607C109.592 6.13055 109.816 5.55216 109.816 4.95325C109.816 4.29965 109.536 3.70074 108.975 3.3466C108.464 3.02236 107.813 3.02568 107.206 3.02877C107.148 3.02907 107.09 3.02937 107.032 3.02937H105.443V6.89764ZM3.5864 11.8134C3.5864 13.1589 4.48339 14.2802 5.99707 14.2802C7.34255 14.2802 8.37081 13.4392 8.37081 12.0568C8.37081 10.4678 6.89018 10.0478 5.64597 9.69481L5.60463 9.68308C4.42733 9.34671 3.41822 9.04725 2.42824 8.30067C1.26872 7.4406 0.652039 6.20724 0.652039 4.7674C0.652039 2.09557 2.93144 0.0951193 5.54857 0.0951193C6.65067 0.0951193 7.75413 0.450634 8.42687 1.34763V0.450634H10.7815V4.80569H8.0153C7.99615 3.60925 7.1183 2.69448 5.90408 2.69448C4.68987 2.69448 3.69853 3.44243 3.69853 4.71271C3.69853 6.24602 5.00376 6.6129 6.22069 6.95496L6.35258 6.9921C7.60509 7.32848 8.78239 7.66485 9.82842 8.46886C10.8745 9.30979 11.4351 10.5062 11.4351 11.8695C11.4351 14.8039 9.2678 16.9534 6.31429 16.9534C5.06179 16.9534 3.97884 16.524 3.21174 15.5709V16.6361H0.783306V11.8326C0.783306 11.8134 3.5864 11.8134 3.5864 11.8134ZM11.7523 14.0369H13.5271V3.01044H11.7523V0.431595H23.7495V5.30898H20.6661V3.19777H16.6105V7.23423H21.3197V9.64489H16.6105V13.9247H20.6661V11.7192H23.7495V16.6157H11.7523V14.0369ZM26.4788 14.0369H24.7039V16.6157H36.7012V11.7192H33.6178V13.9247H29.5622V9.64489H34.2714V7.23423H29.5622V3.19777H33.6178V5.30898H36.7012V0.431595H24.7039V3.01044H26.4788V14.0369ZM37.6542 14.0369H39.429V3.01044H37.6542V0.431595H45.3347C47.5963 0.431595 49.352 0.899233 50.9791 2.56195C52.5489 4.15083 53.2585 6.3181 53.2585 8.57972C53.2585 10.6349 52.5489 12.6914 51.1651 14.2242C49.5585 16.0373 47.6523 16.6349 45.2786 16.6349H37.6542V14.0369ZM42.5138 13.8318H44.9436C46.4764 13.8318 47.8219 13.6267 48.8871 12.4111C49.7649 11.3828 50.1956 9.88829 50.1956 8.57972C50.1956 7.12211 49.7841 5.53323 48.7941 4.46805C47.692 3.32767 46.4764 3.17863 44.9819 3.17863H42.5152V13.8304L42.5138 13.8318Z" fill="black" fill-opacity="0.5"></path></svg>